<svg xmlns="http://www.w3.org/2000/svg" viewBox="0 0 474.31 290.86"><defs><style>.cls-1{font-size:45.52px;font-family:Montserrat-ExtraBold, Montserrat;font-weight:800;}.cls-1,.cls-4{fill:#febc11;}.cls-2,.cls-3{fill:#303030;}.cls-2{letter-spacing:0em;}</style></defs><g id="Layer_2" data-name="Layer 2"><g id="Dieline"><text class="cls-1" transform="translate(0 278.66)">TERMINAL<tspan class="cls-2" x="252.24" y="0" xml:space="preserve"> TRANSIT</tspan></text><path class="cls-3" d="M168.2,104.15v15c-1.57,0-3,.06-4.42,0-8.73-.31-17.48-.82-26.21-1.06V107.72A202.92,202.92,0,0,1,168.2,104.15Z"/><path class="cls-3" d="M228.43,120c-.06.35-.12.7-.2,1.06-16.36.31-32.7-1-49.2-1.26V103.51c6.63.21,13.4-.81,19.48,1.7,9.3,3.87,18.2,8.65,27.29,13.07A22.71,22.71,0,0,1,228.43,120Z"/><path class="cls-3" d="M288.68,51.33H162a24.41,24.41,0,0,0-24.41,24.42V97.21c3.61-.61,7.24-1.18,10.85-1.73,13-2,26-3.28,39.12-2.73a49,49,0,0,1,16.68,3.18,202.28,202.28,0,0,1,36.63,19.43,17.06,17.06,0,0,0,7.24,2.66,294.94,294.94,0,0,1,44.61,9.26,19,19,0,0,1,9.89,6.79c5.65,7.18,7.53,15.42,7,24.39a15.62,15.62,0,0,1-11.36,14.42,38.74,38.74,0,0,1-4.22.69c2.95-16.8-1.76-29.1-13.75-36.67a32.06,32.06,0,0,0-35.77.72,32.4,32.4,0,0,0-12.59,35.81H140a32.32,32.32,0,0,0-2.41-24.05v23A24.42,24.42,0,0,0,162,196.8h126.7a24.42,24.42,0,0,0,24.42-24.43V75.75A24.42,24.42,0,0,0,288.68,51.33ZM262.52,186.08a21.94,21.94,0,0,1-.11-43.87,21.94,21.94,0,1,1,.11,43.87Z"/><path class="cls-4" d="M284.42,164.11a21.93,21.93,0,1,1-22-21.9A22.1,22.1,0,0,1,284.42,164.11Z"/><path class="cls-3" d="M284.67,58.86h-7.85v-34a15,15,0,0,0-15-15H257V2h4.78a22.91,22.91,0,0,1,22.88,22.88Z"/><path class="cls-3" d="M173.84,58.86H166v-34A22.91,22.91,0,0,1,188.87,2h4.79V9.81h-4.79a15,15,0,0,0-15,15Z"/><path class="cls-3" d="M245.35,11.77h-40a5.89,5.89,0,1,1,0-11.77h40a5.89,5.89,0,0,1,0,11.77Z"/><path class="cls-3" d="M174.13,202.1V208a7.85,7.85,0,1,0,15.69,0V202.1Z"/><path class="cls-3" d="M260.84,202.1V208a7.85,7.85,0,0,0,15.7,0V202.1Z"/></g></g></svg>